Coordinates
version=1
nRows=8
nColumns=40
inDegrees=yes

Units are S.I. units (second, meters, Newtons, ...)
Angles are in degrees.

endheader
time	pelvis_tilt	pelvis_list	pelvis_rotation	pelvis_tx	pelvis_ty	pelvis_tz	hip_flexion_r	hip_adduction_r	hip_rotation_r	knee_angle_r	knee_angle_r_beta	ankle_angle_r	subtalar_angle_r	mtp_angle_r	hip_flexion_l	hip_adduction_l	hip_rotation_l	knee_angle_l	knee_angle_l_beta	ankle_angle_l	subtalar_angle_l	mtp_angle_l	lumbar_extension	lumbar_bending	lumbar_rotation	arm_flex_r	arm_add_r	arm_rot_r	elbow_flex_r	pro_sup_r	wrist_flex_r	wrist_dev_r	arm_flex_l	arm_add_l	arm_rot_l	elbow_flex_l	pro_sup_l	wrist_flex_l	wrist_dev_l
     35.52000000	     -1.73895560	     -4.55242860	      2.38716701	      1.09727586	      0.93466269	      0.51334579	      6.39020309	      3.32638090	    -13.82192512	     14.64591017	     14.64591017	     12.52910806	      3.06769421	     -3.47789319	     30.81328761	    -11.37513853	      1.79542051	     52.81894830	     52.81894830	      8.63218493	    -17.59524262	      8.50553536	     -9.02713320	      4.74145828	      2.67978510	     22.88207956	    -21.19590941	     -6.34200842	     78.68679824	     44.90162305	      0.00000000	      0.00000000	     -5.00808236	     -7.93242035	     -5.13907909	     24.87901645	     45.94337825	      0.00000000	      0.00000000
     35.53371429	     -1.60019405	     -4.38759916	      2.81719436	      1.09620953	      0.93539898	      0.51318194	      5.24642665	      3.32728997	    -14.15849406	     13.36035349	     13.36035349	     12.34927661	      3.54619137	     -3.57358812	     30.79215933	    -10.85041779	      1.69445030	     49.09156920	     49.09156920	      8.83730120	    -17.63105785	      8.98318358	     -9.33709123	      4.67846797	      2.42650343	     24.20227619	    -20.63427527	     -6.33263163	     79.90389373	     44.87249324	      0.00000000	      0.00000000	     -6.08875524	     -7.65190415	     -5.09087692	     25.13101319	     45.91176310	      0.00000000	      0.00000000
     35.54742857	     -1.88941891	     -4.36479489	      3.19573228	      1.09473455	      0.93504461	      0.51289873	      5.03831730	      3.35012531	    -14.44915344	     12.92426858	     12.92426858	     12.40071423	      3.59363629	     -3.71625539	     31.26711664	    -10.49728135	      1.54303867	     45.35072804	     45.35072804	      9.02584996	    -16.98708741	      9.32248312	     -9.15127164	      4.77488341	      2.71100104	     25.34213585	    -20.78860672	     -6.43245488	     80.48195302	     44.86460774	      0.00000000	      0.00000000	     -6.73885784	     -7.19290415	     -5.04380128	     25.21985295	     45.88961773	      0.00000000	      0.00000000
     35.56114286	     -1.88951516	     -4.29756800	      3.58420724	      1.09358943	      0.93505906	      0.51248497	      4.38884161	      3.34530660	    -14.85873846	     12.29187051	     12.29187051	     12.37641095	      3.94376048	     -4.02804868	     31.13937744	    -10.03764442	      1.47294024	     41.26381820	     41.26381820	      8.96926650	    -16.27782596	      9.43865616	     -9.32108719	      4.80606057	      2.70256180	     26.43212931	    -20.50745720	     -6.33429293	     81.26138829	     44.84689274	      0.00000000	      0.00000000	     -7.53590392	     -6.93358101	     -4.99104272	     25.54727138	     45.86372712	      0.00000000	      0.00000000
     35.57485714	     -2.12467926	     -4.32201741	      3.95255642	      1.09224343	      0.93449008	      0.51194677	      4.18164804	      3.38754272	    -15.19193907	     11.98460873	     11.98460873	     12.46736433	      4.03094422	     -4.23657650	     31.29394288	     -9.66548735	      1.41769985	     37.33036289	     37.33036289	      8.82387407	    -14.99052407	      9.71204705	     -9.19120295	      4.91573201	      2.91316043	     27.45136235	    -20.55263055	     -6.33421952	     81.74092868	     44.83917089	      0.00000000	      0.00000000	     -8.03544020	     -6.56577814	     -4.93111172	     25.66821448	     45.84332258	      0.00000000	      0.00000000
     35.58857143	     -2.20104516	     -4.33764259	      4.29821674	      1.09111499	      0.93406428	      0.51130064	      3.79480771	      3.41441757	    -15.54197547	     11.70003448	     11.70003448	     12.58065341	      4.24384538	     -4.48205158	     31.13365763	     -9.29913010	      1.33814334	     33.43487575	     33.43487575	      8.53998990	    -13.37925726	      9.92913721	     -9.23467971	      5.03139826	      3.03852977	     28.39817013	    -20.41490693	     -6.23969862	     82.19484181	     44.82952075	      0.00000000	      0.00000000	     -8.50905303	     -6.30426059	     -4.86184310	     25.79021795	     45.82255887	      0.00000000	      0.00000000
     35.60228571	     -2.30892573	     -4.40206389	      4.63710255	      1.09006382	      0.93345826	      0.51048756	      3.47980211	      3.47097115	    -15.90775137	     11.48785709	     11.48785709	     12.73867614	      4.43272780	     -4.70929766	     31.00228268	     -8.98234672	      1.24889733	     29.84119734	     29.84119734	      8.12145948	    -11.50584623	     10.20546032	     -9.21556040	      5.22866938	      3.16581506	     29.29873958	    -20.30586003	     -6.14284085	     82.52684261	     44.82312397	      0.00000000	      0.00000000	     -8.85413090	     -6.02720745	     -4.78232369	     25.89055417	     45.80275312	      0.00000000	      0.00000000
     35.61600000	     -2.41765985	     -4.69263529	      4.96980113	      1.08904279	      0.93263867	      0.50969312	      3.27194671	      3.75705168	    -16.27836930	     11.44480308	     11.44480308	     12.89737623	      4.54196516	     -4.90257555	     31.00737955	     -8.88064282	      1.34450137	     26.79818323	     26.79818323	      7.63225868	     -9.66749992	     10.58916252	     -9.18438589	      5.63724599	      3.34254660	     30.10419648	    -20.27179362	     -6.09144213	     82.73717400	     44.82049331	      0.00000000	      0.00000000	     -9.06532910	     -5.78454047	     -4.71607225	     25.95011838	     45.78776628	      0.00000000	      0.00000000
